<svg xmlns="http://www.w3.org/2000/svg" xmlns:xlink="http://www.w3.org/1999/xlink" width="500" zoomAndPan="magnify" viewBox="0 0 375 374.999991" height="500" preserveAspectRatio="xMidYMid meet" version="1.0"><defs><clipPath id="e7ab73c06c"><path d="M 265 218 L 344 218 L 344 297.066406 L 265 297.066406 Z M 265 218 " clip-rule="nonzero"/></clipPath><clipPath id="893adb0bfa"><path d="M 93 218 L 172 218 L 172 297.066406 L 93 297.066406 Z M 93 218 " clip-rule="nonzero"/></clipPath><clipPath id="5559ecc0c4"><path d="M 62 78.066406 L 266 78.066406 L 266 266 L 62 266 Z M 62 78.066406 " clip-rule="nonzero"/></clipPath></defs><rect x="-37.5" width="450" fill="#ffffff" y="-37.499999" height="449.999989" fill-opacity="1"/><rect x="-37.5" width="450" fill="#ffffff" y="-37.499999" height="449.999989" fill-opacity="1"/><path fill="#000000" d="M 101.5625 265.742188 L 70.3125 265.742188 C 66 265.742188 62.5 262.242188 62.5 257.925781 C 62.5 253.609375 66 250.109375 70.3125 250.109375 L 101.5625 250.109375 C 105.875 250.109375 109.375 253.609375 109.375 257.925781 C 109.375 262.242188 105.875 265.742188 101.5625 265.742188 Z M 101.5625 265.742188 " fill-opacity="1" fill-rule="nonzero"/><path fill="#000000" d="M 355.46875 265.742188 L 335.9375 265.742188 C 331.625 265.742188 328.125 262.242188 328.125 257.925781 C 328.125 253.609375 331.625 250.109375 335.9375 250.109375 L 348.984375 250.109375 L 359.515625 193.945312 C 359.375 165.210938 334.84375 140.664062 304.6875 140.664062 L 253.390625 140.664062 L 228.53125 250.109375 L 273.4375 250.109375 C 277.75 250.109375 281.25 253.609375 281.25 257.925781 C 281.25 262.242188 277.75 265.742188 273.4375 265.742188 L 218.75 265.742188 C 216.375 265.742188 214.125 264.664062 212.640625 262.804688 C 211.15625 260.960938 210.59375 258.519531 211.125 256.207031 L 239.53125 131.125 C 240.34375 127.546875 243.5 125.027344 247.15625 125.027344 L 304.6875 125.027344 C 343.453125 125.027344 375 156.59375 375 195.386719 L 363.140625 259.363281 C 362.453125 263.070312 359.234375 265.742188 355.46875 265.742188 Z M 355.46875 265.742188 " fill-opacity="1" fill-rule="nonzero"/><g clip-path="url(#e7ab73c06c)"><path fill="#000000" d="M 304.6875 297.011719 C 283.15625 297.011719 265.625 279.488281 265.625 257.925781 C 265.625 236.363281 283.15625 218.839844 304.6875 218.839844 C 326.21875 218.839844 343.75 236.363281 343.75 257.925781 C 343.75 279.488281 326.21875 297.011719 304.6875 297.011719 Z M 304.6875 234.472656 C 291.765625 234.472656 281.25 244.996094 281.25 257.925781 C 281.25 270.855469 291.765625 281.378906 304.6875 281.378906 C 317.609375 281.378906 328.125 270.855469 328.125 257.925781 C 328.125 244.996094 317.609375 234.472656 304.6875 234.472656 Z M 304.6875 234.472656 " fill-opacity="1" fill-rule="nonzero"/></g><g clip-path="url(#893adb0bfa)"><path fill="#000000" d="M 132.8125 297.011719 C 111.28125 297.011719 93.75 279.488281 93.75 257.925781 C 93.75 236.363281 111.28125 218.839844 132.8125 218.839844 C 154.34375 218.839844 171.875 236.363281 171.875 257.925781 C 171.875 279.488281 154.34375 297.011719 132.8125 297.011719 Z M 132.8125 234.472656 C 119.890625 234.472656 109.375 244.996094 109.375 257.925781 C 109.375 270.855469 119.890625 281.378906 132.8125 281.378906 C 145.734375 281.378906 156.25 270.855469 156.25 257.925781 C 156.25 244.996094 145.734375 234.472656 132.8125 234.472656 Z M 132.8125 234.472656 " fill-opacity="1" fill-rule="nonzero"/></g><path fill="#000000" d="M 101.5625 125.027344 L 39.0625 125.027344 C 34.75 125.027344 31.25 121.527344 31.25 117.210938 C 31.25 112.894531 34.75 109.394531 39.0625 109.394531 L 101.5625 109.394531 C 105.875 109.394531 109.375 112.894531 109.375 117.210938 C 109.375 121.527344 105.875 125.027344 101.5625 125.027344 Z M 101.5625 125.027344 " fill-opacity="1" fill-rule="nonzero"/><path fill="#000000" d="M 101.5625 171.933594 L 23.4375 171.933594 C 19.125 171.933594 15.625 168.429688 15.625 164.117188 C 15.625 159.800781 19.125 156.296875 23.4375 156.296875 L 101.5625 156.296875 C 105.875 156.296875 109.375 159.800781 109.375 164.117188 C 109.375 168.429688 105.875 171.933594 101.5625 171.933594 Z M 101.5625 171.933594 " fill-opacity="1" fill-rule="nonzero"/><path fill="#000000" d="M 101.5625 218.839844 L 7.8125 218.839844 C 3.5 218.839844 0 215.335938 0 211.019531 C 0 206.707031 3.5 203.203125 7.8125 203.203125 L 101.5625 203.203125 C 105.875 203.203125 109.375 206.707031 109.375 211.019531 C 109.375 215.335938 105.875 218.839844 101.5625 218.839844 Z M 101.5625 218.839844 " fill-opacity="1" fill-rule="nonzero"/><g clip-path="url(#5559ecc0c4)"><path fill="#000000" d="M 218.75 265.742188 L 164.0625 265.742188 C 159.75 265.742188 156.25 262.242188 156.25 257.925781 C 156.25 253.609375 159.75 250.109375 164.0625 250.109375 L 212.515625 250.109375 L 248.015625 93.757812 L 70.3125 93.757812 C 66 93.757812 62.5 90.253906 62.5 85.941406 C 62.5 81.625 66 78.121094 70.3125 78.121094 L 257.8125 78.121094 C 260.1875 78.121094 262.4375 79.203125 263.921875 81.0625 C 265.40625 82.90625 265.96875 85.347656 265.4375 87.660156 L 226.375 259.644531 C 225.5625 263.226562 222.390625 265.742188 218.75 265.742188 Z M 218.75 265.742188 " fill-opacity="1" fill-rule="nonzero"/></g></svg>