<svg xmlns="http://www.w3.org/2000/svg" xmlns:xlink="http://www.w3.org/1999/xlink" width="1000" zoomAndPan="magnify" viewBox="0 0 750 187.499995" height="250" preserveAspectRatio="xMidYMid meet" version="1.0"><defs><g/><clipPath id="6578fb16ba"><path d="M 0.996094 0 L 749 0 L 749 187 L 0.996094 187 Z M 0.996094 0 " clip-rule="nonzero"/></clipPath><clipPath id="337bdde5aa"><path d="M 80 72 L 136.386719 72 L 136.386719 121 L 80 121 Z M 80 72 " clip-rule="nonzero"/></clipPath><clipPath id="97f8090d88"><path d="M 99 104 L 126 104 L 126 130.902344 L 99 130.902344 Z M 99 104 " clip-rule="nonzero"/></clipPath><clipPath id="bc799a9875"><path d="M 40 104 L 68 104 L 68 130.902344 L 40 130.902344 Z M 40 104 " clip-rule="nonzero"/></clipPath><clipPath id="e3d4108b91"><path d="M 8.476562 98 L 46 98 L 46 105 L 8.476562 105 Z M 8.476562 98 " clip-rule="nonzero"/></clipPath><clipPath id="268558241f"><path d="M 29 56.101562 L 100 56.101562 L 100 121 L 29 121 Z M 29 56.101562 " clip-rule="nonzero"/></clipPath></defs><g clip-path="url(#6578fb16ba)"><path fill="#ffffff" d="M 0.996094 0 L 749.003906 0 L 749.003906 187 L 0.996094 187 Z M 0.996094 0 " fill-opacity="1" fill-rule="nonzero"/><path fill="#ffffff" d="M 0.996094 0 L 749.003906 0 L 749.003906 187 L 0.996094 187 Z M 0.996094 0 " fill-opacity="1" fill-rule="nonzero"/></g><path fill="#000000" d="M 43.121094 120.199219 L 32.460938 120.199219 C 30.988281 120.199219 29.796875 119.003906 29.796875 117.53125 C 29.796875 116.054688 30.988281 114.859375 32.460938 114.859375 L 43.121094 114.859375 C 44.589844 114.859375 45.785156 116.054688 45.785156 117.53125 C 45.785156 119.003906 44.589844 120.199219 43.121094 120.199219 Z M 43.121094 120.199219 " fill-opacity="1" fill-rule="nonzero"/><g clip-path="url(#337bdde5aa)"><path fill="#000000" d="M 129.722656 120.199219 L 123.0625 120.199219 C 121.589844 120.199219 120.398438 119.003906 120.398438 117.53125 C 120.398438 116.054688 121.589844 114.859375 123.0625 114.859375 L 127.511719 114.859375 L 131.105469 95.679688 C 131.058594 85.863281 122.6875 77.480469 112.402344 77.480469 L 94.90625 77.480469 L 86.425781 114.859375 L 101.746094 114.859375 C 103.214844 114.859375 104.410156 116.054688 104.410156 117.53125 C 104.410156 119.003906 103.214844 120.199219 101.746094 120.199219 L 83.089844 120.199219 C 82.28125 120.199219 81.511719 119.832031 81.007812 119.195312 C 80.5 118.566406 80.308594 117.734375 80.488281 116.941406 L 90.179688 74.222656 C 90.457031 73 91.53125 72.140625 92.78125 72.140625 L 112.402344 72.140625 C 125.625 72.140625 136.386719 82.921875 136.386719 96.171875 L 132.339844 118.019531 C 132.105469 119.285156 131.007812 120.199219 129.722656 120.199219 Z M 129.722656 120.199219 " fill-opacity="1" fill-rule="nonzero"/></g><g clip-path="url(#97f8090d88)"><path fill="#000000" d="M 112.402344 130.878906 C 105.058594 130.878906 99.078125 124.894531 99.078125 117.53125 C 99.078125 110.167969 105.058594 104.179688 112.402344 104.179688 C 119.746094 104.179688 125.726562 110.167969 125.726562 117.53125 C 125.726562 124.894531 119.746094 130.878906 112.402344 130.878906 Z M 112.402344 109.519531 C 107.996094 109.519531 104.410156 113.113281 104.410156 117.53125 C 104.410156 121.945312 107.996094 125.539062 112.402344 125.539062 C 116.8125 125.539062 120.398438 121.945312 120.398438 117.53125 C 120.398438 113.113281 116.8125 109.519531 112.402344 109.519531 Z M 112.402344 109.519531 " fill-opacity="1" fill-rule="nonzero"/></g><g clip-path="url(#bc799a9875)"><path fill="#000000" d="M 53.777344 130.878906 C 46.433594 130.878906 40.453125 124.894531 40.453125 117.53125 C 40.453125 110.167969 46.433594 104.179688 53.777344 104.179688 C 61.121094 104.179688 67.101562 110.167969 67.101562 117.53125 C 67.101562 124.894531 61.121094 130.878906 53.777344 130.878906 Z M 53.777344 109.519531 C 49.371094 109.519531 45.785156 113.113281 45.785156 117.53125 C 45.785156 121.945312 49.371094 125.539062 53.777344 125.539062 C 58.1875 125.539062 61.773438 121.945312 61.773438 117.53125 C 61.773438 113.113281 58.1875 109.519531 53.777344 109.519531 Z M 53.777344 109.519531 " fill-opacity="1" fill-rule="nonzero"/></g><path fill="#000000" d="M 43.121094 72.140625 L 21.800781 72.140625 C 20.332031 72.140625 19.136719 70.945312 19.136719 69.472656 C 19.136719 67.996094 20.332031 66.800781 21.800781 66.800781 L 43.121094 66.800781 C 44.589844 66.800781 45.785156 67.996094 45.785156 69.472656 C 45.785156 70.945312 44.589844 72.140625 43.121094 72.140625 Z M 43.121094 72.140625 " fill-opacity="1" fill-rule="nonzero"/><path fill="#000000" d="M 43.121094 88.160156 L 16.472656 88.160156 C 15 88.160156 13.808594 86.964844 13.808594 85.492188 C 13.808594 84.015625 15 82.820312 16.472656 82.820312 L 43.121094 82.820312 C 44.589844 82.820312 45.785156 84.015625 45.785156 85.492188 C 45.785156 86.964844 44.589844 88.160156 43.121094 88.160156 Z M 43.121094 88.160156 " fill-opacity="1" fill-rule="nonzero"/><g clip-path="url(#e3d4108b91)"><path fill="#000000" d="M 43.121094 104.179688 L 11.140625 104.179688 C 9.671875 104.179688 8.476562 102.984375 8.476562 101.511719 C 8.476562 100.035156 9.671875 98.839844 11.140625 98.839844 L 43.121094 98.839844 C 44.589844 98.839844 45.785156 100.035156 45.785156 101.511719 C 45.785156 102.984375 44.589844 104.179688 43.121094 104.179688 Z M 43.121094 104.179688 " fill-opacity="1" fill-rule="nonzero"/></g><g clip-path="url(#268558241f)"><path fill="#000000" d="M 83.089844 120.199219 L 64.4375 120.199219 C 62.964844 120.199219 61.773438 119.003906 61.773438 117.53125 C 61.773438 116.054688 62.964844 114.859375 64.4375 114.859375 L 80.964844 114.859375 L 93.074219 61.460938 L 32.460938 61.460938 C 30.988281 61.460938 29.796875 60.265625 29.796875 58.792969 C 29.796875 57.320312 30.988281 56.121094 32.460938 56.121094 L 96.414062 56.121094 C 97.226562 56.121094 97.992188 56.492188 98.5 57.125 C 99.003906 57.757812 99.195312 58.589844 99.015625 59.378906 L 85.691406 118.117188 C 85.414062 119.339844 84.332031 120.199219 83.089844 120.199219 Z M 83.089844 120.199219 " fill-opacity="1" fill-rule="nonzero"/></g><g fill="#000000" fill-opacity="1"><g transform="translate(161.50029, 128.282903)"><g><path d="M 6.25 0.3125 C 5.695312 0.3125 5.265625 0.0859375 4.953125 -0.359375 C 4.640625 -0.816406 4.484375 -1.359375 4.484375 -1.984375 C 4.554688 -3.023438 4.765625 -3.648438 5.109375 -3.859375 C 5.453125 -4.066406 6.113281 -4.171875 7.09375 -4.171875 C 9.101562 -4.171875 10.59375 -4.535156 11.5625 -5.265625 C 12.539062 -5.992188 13.148438 -6.894531 13.390625 -7.96875 C 13.640625 -9.050781 13.796875 -10.460938 13.859375 -12.203125 L 13.859375 -53.578125 C 13.796875 -55.316406 13.640625 -56.722656 13.390625 -57.796875 C 13.148438 -58.867188 12.539062 -59.769531 11.5625 -60.5 C 10.59375 -61.238281 9.101562 -61.609375 7.09375 -61.609375 L 6.46875 -61.609375 C 5.769531 -61.609375 5.28125 -61.726562 5 -61.96875 C 4.726562 -62.207031 4.554688 -62.816406 4.484375 -63.796875 C 4.484375 -64.421875 4.640625 -64.957031 4.953125 -65.40625 C 5.265625 -65.851562 5.695312 -66.078125 6.25 -66.078125 C 10.84375 -65.867188 14.976562 -65.765625 18.65625 -65.765625 L 51.390625 -65.765625 C 53.191406 -65.765625 54.09375 -64.929688 54.09375 -63.265625 L 54.40625 -48.671875 C 54.40625 -48.046875 54.09375 -47.539062 53.46875 -47.15625 C 52.84375 -46.78125 52.21875 -46.59375 51.59375 -46.59375 C 50.757812 -46.59375 50.03125 -46.75 49.40625 -47.0625 C 48.78125 -47.375 48.429688 -47.84375 48.359375 -48.46875 C 47.804688 -51.875 47.195312 -54.460938 46.53125 -56.234375 C 45.875 -58.003906 44.898438 -59.320312 43.609375 -60.1875 C 42.328125 -61.0625 40.507812 -61.535156 38.15625 -61.609375 L 24.1875 -61.609375 L 24.1875 -35.125 L 43.046875 -35.125 C 43.535156 -35.050781 43.914062 -34.789062 44.1875 -34.34375 C 44.46875 -33.894531 44.609375 -33.359375 44.609375 -32.734375 C 44.609375 -32.171875 44.46875 -31.679688 44.1875 -31.265625 C 43.914062 -30.847656 43.535156 -30.640625 43.046875 -30.640625 L 24.1875 -30.640625 L 24.1875 -10.9375 C 24.320312 -9.476562 24.492188 -8.316406 24.703125 -7.453125 C 24.910156 -6.585938 25.535156 -5.804688 26.578125 -5.109375 C 27.617188 -4.410156 29.253906 -4.097656 31.484375 -4.171875 L 41.0625 -4.171875 C 43.5 -4.242188 45.34375 -4.644531 46.59375 -5.375 C 47.84375 -6.101562 48.832031 -7.226562 49.5625 -8.75 C 50.289062 -10.28125 51.175781 -12.785156 52.21875 -16.265625 C 52.707031 -17.515625 53.890625 -18 55.765625 -17.71875 C 56.460938 -17.582031 57.070312 -17.304688 57.59375 -16.890625 C 58.113281 -16.472656 58.335938 -15.953125 58.265625 -15.328125 L 56.1875 -2.1875 C 55.976562 -1.28125 55.664062 -0.6875 55.25 -0.40625 C 54.832031 -0.132812 54.132812 0 53.15625 0 L 18.765625 0 C 15.015625 0 10.84375 0.101562 6.25 0.3125 Z M 6.25 0.3125 "/></g></g></g><g fill="#000000" fill-opacity="1"><g transform="translate(223.412826, 128.282903)"><g><path d="M 8.65625 -20.75 C 7.957031 -20.75 7.378906 -21.113281 6.921875 -21.84375 C 6.472656 -22.570312 6.25 -23.316406 6.25 -24.078125 C 6.25 -24.835938 6.472656 -25.582031 6.921875 -26.3125 C 7.378906 -27.039062 7.957031 -27.40625 8.65625 -27.40625 L 31.484375 -27.40625 C 32.171875 -27.40625 32.738281 -27.039062 33.1875 -26.3125 C 33.644531 -25.582031 33.875 -24.835938 33.875 -24.078125 C 33.875 -23.316406 33.644531 -22.570312 33.1875 -21.84375 C 32.738281 -21.113281 32.171875 -20.75 31.484375 -20.75 Z M 8.65625 -20.75 "/></g></g></g><g fill="#000000" fill-opacity="1"><g transform="translate(263.541318, 128.282903)"><g><path d="M 6.25 0.3125 C 5.695312 0.3125 5.265625 0.0859375 4.953125 -0.359375 C 4.640625 -0.816406 4.484375 -1.359375 4.484375 -1.984375 C 4.554688 -3.023438 4.765625 -3.648438 5.109375 -3.859375 C 5.453125 -4.066406 6.113281 -4.171875 7.09375 -4.171875 C 9.101562 -4.171875 10.59375 -4.535156 11.5625 -5.265625 C 12.539062 -5.992188 13.148438 -6.894531 13.390625 -7.96875 C 13.640625 -9.050781 13.796875 -10.460938 13.859375 -12.203125 L 13.859375 -53.578125 C 13.796875 -55.316406 13.640625 -56.722656 13.390625 -57.796875 C 13.148438 -58.867188 12.539062 -59.769531 11.5625 -60.5 C 10.59375 -61.238281 9.101562 -61.609375 7.09375 -61.609375 L 6.46875 -61.609375 C 5.769531 -61.609375 5.28125 -61.726562 5 -61.96875 C 4.726562 -62.207031 4.554688 -62.816406 4.484375 -63.796875 C 4.484375 -64.421875 4.640625 -64.957031 4.953125 -65.40625 C 5.265625 -65.851562 5.695312 -66.078125 6.25 -66.078125 C 10.84375 -65.867188 14.976562 -65.765625 18.65625 -65.765625 C 22.820312 -65.765625 27.164062 -65.867188 31.6875 -66.078125 C 32.3125 -66.078125 32.78125 -65.851562 33.09375 -65.40625 C 33.40625 -64.957031 33.5625 -64.421875 33.5625 -63.796875 C 33.488281 -62.753906 33.257812 -62.128906 32.875 -61.921875 C 32.5 -61.710938 31.859375 -61.609375 30.953125 -61.609375 C 28.941406 -61.609375 27.445312 -61.238281 26.46875 -60.5 C 25.5 -59.769531 24.890625 -58.867188 24.640625 -57.796875 C 24.398438 -56.722656 24.25 -55.316406 24.1875 -53.578125 L 24.1875 -10.625 C 24.320312 -9.164062 24.492188 -8.035156 24.703125 -7.234375 C 24.910156 -6.441406 25.535156 -5.710938 26.578125 -5.046875 C 27.617188 -4.390625 29.253906 -4.097656 31.484375 -4.171875 L 40.859375 -4.171875 C 43.296875 -4.242188 45.140625 -4.644531 46.390625 -5.375 C 47.640625 -6.101562 48.628906 -7.226562 49.359375 -8.75 C 50.085938 -10.28125 50.972656 -12.785156 52.015625 -16.265625 C 52.503906 -17.515625 53.6875 -18 55.5625 -17.71875 C 56.1875 -17.582031 56.773438 -17.304688 57.328125 -16.890625 C 57.878906 -16.472656 58.125 -15.953125 58.0625 -15.328125 L 55.96875 -2.1875 C 55.757812 -1.28125 55.445312 -0.6875 55.03125 -0.40625 C 54.613281 -0.132812 53.921875 0 52.953125 0 L 18.765625 0 C 15.015625 0 10.84375 0.101562 6.25 0.3125 Z M 6.25 0.3125 "/></g></g></g><g fill="#000000" fill-opacity="1"><g transform="translate(323.056564, 128.282903)"><g><path d="M 28.5625 1.25 C 23.832031 1.25 19.625 0.117188 15.9375 -2.140625 C 12.257812 -4.398438 9.394531 -7.382812 7.34375 -11.09375 C 5.300781 -14.8125 4.28125 -18.757812 4.28125 -22.9375 C 4.28125 -28.144531 5.492188 -32.675781 7.921875 -36.53125 C 10.347656 -40.382812 13.4375 -43.335938 17.1875 -45.390625 C 20.945312 -47.441406 24.738281 -48.46875 28.5625 -48.46875 C 33.28125 -48.46875 37.484375 -47.335938 41.171875 -45.078125 C 44.859375 -42.816406 47.722656 -39.828125 49.765625 -36.109375 C 51.816406 -32.398438 52.84375 -28.457031 52.84375 -24.28125 C 52.84375 -19.070312 51.609375 -14.539062 49.140625 -10.6875 C 46.679688 -6.832031 43.570312 -3.878906 39.8125 -1.828125 C 36.0625 0.222656 32.3125 1.25 28.5625 1.25 Z M 28.5625 -2.609375 C 33.28125 -2.609375 36.734375 -4.625 38.921875 -8.65625 C 41.117188 -12.6875 42.21875 -17.894531 42.21875 -24.28125 C 42.21875 -30.257812 41.085938 -35.140625 38.828125 -38.921875 C 36.566406 -42.710938 33.144531 -44.609375 28.5625 -44.609375 C 23.769531 -44.609375 20.296875 -42.628906 18.140625 -38.671875 C 15.984375 -34.710938 14.90625 -29.535156 14.90625 -23.140625 C 14.90625 -17.160156 16.015625 -12.242188 18.234375 -8.390625 C 20.460938 -4.535156 23.90625 -2.609375 28.5625 -2.609375 Z M 28.5625 -2.609375 "/></g></g></g><g fill="#000000" fill-opacity="1"><g transform="translate(380.174521, 128.282903)"><g><path d="M 24.8125 22.71875 C 10.144531 22.71875 2.8125 18.550781 2.8125 10.21875 C 2.8125 7.851562 3.554688 5.800781 5.046875 4.0625 C 6.546875 2.320312 8.476562 1.453125 10.84375 1.453125 C 11.8125 1.453125 12.710938 1.644531 13.546875 2.03125 C 14.378906 2.414062 15.054688 2.867188 15.578125 3.390625 C 16.097656 3.910156 16.359375 4.3125 16.359375 4.59375 C 16.359375 4.65625 16.0625 4.984375 15.46875 5.578125 C 14.882812 6.171875 14.363281 6.898438 13.90625 7.765625 C 13.457031 8.628906 13.234375 9.65625 13.234375 10.84375 C 13.234375 16.1875 17.820312 18.859375 27 18.859375 C 32.28125 18.859375 36.34375 17.9375 39.1875 16.09375 C 42.039062 14.257812 43.46875 11.535156 43.46875 7.921875 C 43.46875 5.703125 42.632812 4.035156 40.96875 2.921875 C 39.300781 1.804688 37.210938 1.09375 34.703125 0.78125 C 32.203125 0.46875 28.9375 0.273438 24.90625 0.203125 C 19.976562 0.0664062 16.472656 -0.171875 14.390625 -0.515625 C 11.671875 -1.003906 9.566406 -1.875 8.078125 -3.125 C 6.585938 -4.375 5.84375 -6.320312 5.84375 -8.96875 C 5.84375 -11.675781 6.796875 -13.945312 8.703125 -15.78125 C 10.609375 -17.625 13.335938 -18.546875 16.890625 -18.546875 C 12.785156 -20.148438 9.898438 -22.148438 8.234375 -24.546875 C 6.566406 -26.941406 5.734375 -29.632812 5.734375 -32.625 C 5.734375 -35.613281 6.582031 -38.320312 8.28125 -40.75 C 9.988281 -43.1875 12.367188 -45.097656 15.421875 -46.484375 C 18.484375 -47.878906 21.957031 -48.578125 25.84375 -48.578125 C 30.851562 -48.578125 34.710938 -47.878906 37.421875 -46.484375 L 51.703125 -49.203125 L 51.90625 -49.203125 C 53.09375 -49.203125 53.6875 -48.367188 53.6875 -46.703125 C 53.6875 -45.722656 53.53125 -44.816406 53.21875 -43.984375 C 52.90625 -43.148438 52.539062 -42.734375 52.125 -42.734375 L 41.796875 -43.15625 L 41.796875 -42.9375 C 42.972656 -41.757812 43.976562 -40.195312 44.8125 -38.25 C 45.65625 -36.300781 46.078125 -34.460938 46.078125 -32.734375 C 46.078125 -29.535156 45.15625 -26.703125 43.3125 -24.234375 C 41.46875 -21.765625 39.050781 -19.867188 36.0625 -18.546875 C 33.070312 -17.234375 29.945312 -16.578125 26.6875 -16.578125 L 22.09375 -16.578125 C 18.476562 -16.578125 15.851562 -16.226562 14.21875 -15.53125 C 12.59375 -14.832031 11.78125 -13.6875 11.78125 -12.09375 C 11.78125 -10.769531 12.226562 -9.796875 13.125 -9.171875 C 14.03125 -8.546875 15.597656 -8.164062 17.828125 -8.03125 L 32.109375 -7.5 C 39.398438 -7.226562 44.660156 -6.066406 47.890625 -4.015625 C 51.128906 -1.960938 52.75 1.144531 52.75 5.3125 C 52.75 10.738281 50.210938 14.992188 45.140625 18.078125 C 40.066406 21.171875 33.289062 22.71875 24.8125 22.71875 Z M 25.84375 -19.59375 C 29.113281 -19.59375 31.738281 -20.753906 33.71875 -23.078125 C 35.695312 -25.410156 36.6875 -28.628906 36.6875 -32.734375 C 36.6875 -36.554688 35.660156 -39.613281 33.609375 -41.90625 C 31.566406 -44.195312 28.945312 -45.34375 25.75 -45.34375 C 22.625 -45.34375 20.050781 -44.226562 18.03125 -42 C 16.019531 -39.78125 15.015625 -36.757812 15.015625 -32.9375 C 15.015625 -28.769531 16.019531 -25.503906 18.03125 -23.140625 C 20.050781 -20.773438 22.65625 -19.59375 25.84375 -19.59375 Z M 25.84375 -19.59375 "/></g></g></g><g fill="#000000" fill-opacity="1"><g transform="translate(434.686729, 128.282903)"><g><path d="M 5.109375 0.3125 C 4.617188 0.3125 4.21875 0.101562 3.90625 -0.3125 C 3.59375 -0.726562 3.4375 -1.210938 3.4375 -1.765625 C 3.507812 -2.671875 3.71875 -3.207031 4.0625 -3.375 C 4.414062 -3.550781 5.039062 -3.640625 5.9375 -3.640625 C 7.75 -3.640625 9.035156 -3.953125 9.796875 -4.578125 C 10.554688 -5.210938 10.988281 -5.945312 11.09375 -6.78125 C 11.195312 -7.613281 11.25 -8.929688 11.25 -10.734375 L 11.25 -34.609375 C 11.25 -36.410156 11.195312 -37.726562 11.09375 -38.5625 C 10.988281 -39.394531 10.554688 -40.125 9.796875 -40.75 C 9.035156 -41.375 7.75 -41.6875 5.9375 -41.6875 C 5.101562 -41.6875 4.476562 -41.804688 4.0625 -42.046875 C 3.644531 -42.296875 3.4375 -42.875 3.4375 -43.78125 C 3.4375 -44.195312 3.578125 -44.59375 3.859375 -44.96875 C 4.140625 -45.351562 4.554688 -45.582031 5.109375 -45.65625 C 9.484375 -46.28125 13.234375 -47.179688 16.359375 -48.359375 C 17.335938 -48.710938 18.140625 -48.921875 18.765625 -48.984375 L 19.078125 -48.984375 C 20.191406 -48.984375 20.75 -48.328125 20.75 -47.015625 L 20.75 -10.734375 C 20.75 -8.929688 20.816406 -7.613281 20.953125 -6.78125 C 21.085938 -5.945312 21.535156 -5.210938 22.296875 -4.578125 C 23.066406 -3.953125 24.351562 -3.640625 26.15625 -3.640625 L 26.78125 -3.640625 C 27.34375 -3.640625 27.757812 -3.535156 28.03125 -3.328125 C 28.3125 -3.117188 28.488281 -2.597656 28.5625 -1.765625 C 28.5625 -1.210938 28.421875 -0.726562 28.140625 -0.3125 C 27.859375 0.101562 27.441406 0.3125 26.890625 0.3125 C 22.859375 0.101562 19.210938 0 15.953125 0 C 12.816406 0 9.203125 0.101562 5.109375 0.3125 Z M 15.421875 -60.5625 C 13.472656 -60.5625 11.835938 -61.164062 10.515625 -62.375 C 9.203125 -63.59375 8.546875 -65.109375 8.546875 -66.921875 C 8.546875 -68.515625 9.34375 -69.9375 10.9375 -71.1875 C 12.539062 -72.4375 14.347656 -73.0625 16.359375 -73.0625 C 18.097656 -73.0625 19.519531 -72.453125 20.625 -71.234375 C 21.738281 -70.023438 22.296875 -68.484375 22.296875 -66.609375 C 22.296875 -64.941406 21.632812 -63.515625 20.3125 -62.328125 C 19 -61.148438 17.367188 -60.5625 15.421875 -60.5625 Z M 15.421875 -60.5625 "/></g></g></g><g fill="#000000" fill-opacity="1"><g transform="translate(465.538773, 128.282903)"><g><path d="M 10.9375 12.828125 C 10.25 12.828125 9.675781 12.53125 9.21875 11.9375 C 8.769531 11.34375 8.546875 10.695312 8.546875 10 C 8.546875 9.238281 8.769531 8.578125 9.21875 8.015625 C 9.675781 7.460938 10.25 7.1875 10.9375 7.1875 L 58.6875 7.1875 C 59.375 7.1875 59.941406 7.460938 60.390625 8.015625 C 60.847656 8.578125 61.078125 9.238281 61.078125 10 C 61.078125 10.695312 60.847656 11.34375 60.390625 11.9375 C 59.941406 12.53125 59.375 12.828125 58.6875 12.828125 Z M 10.9375 12.828125 "/></g></g></g><g fill="#000000" fill-opacity="1"><g transform="translate(535.164303, 128.282903)"><g><path d="M 22.515625 1.765625 C 19.109375 1.765625 16.1875 0.515625 13.75 -1.984375 C 11.320312 -4.484375 10.109375 -8.0625 10.109375 -12.71875 L 10.109375 -43.359375 L 4.0625 -43.15625 C 3.644531 -43.15625 3.296875 -43.34375 3.015625 -43.71875 C 2.742188 -44.101562 2.609375 -44.539062 2.609375 -45.03125 C 2.609375 -45.65625 2.726562 -46.191406 2.96875 -46.640625 C 3.207031 -47.097656 3.570312 -47.359375 4.0625 -47.421875 C 6.5 -47.910156 8.394531 -48.691406 9.75 -49.765625 C 11.101562 -50.847656 12.09375 -52.03125 12.71875 -53.3125 C 13.34375 -54.601562 14.109375 -56.566406 15.015625 -59.203125 C 15.359375 -60.109375 16.117188 -60.5625 17.296875 -60.5625 C 17.785156 -60.5625 18.269531 -60.4375 18.75 -60.1875 C 19.238281 -59.945312 19.484375 -59.582031 19.484375 -59.09375 L 18.765625 -47.21875 L 30.953125 -47.953125 L 31.171875 -47.953125 C 32.066406 -47.953125 32.515625 -47.289062 32.515625 -45.96875 C 32.515625 -45.207031 32.394531 -44.492188 32.15625 -43.828125 C 31.914062 -43.171875 31.617188 -42.84375 31.265625 -42.84375 L 19.59375 -43.15625 L 19.59375 -11.46875 C 19.59375 -9.175781 20.0625 -7.265625 21 -5.734375 C 21.9375 -4.203125 23.484375 -3.4375 25.640625 -3.4375 C 27.796875 -3.4375 29.707031 -3.820312 31.375 -4.59375 C 32.28125 -4.9375 32.835938 -5.109375 33.046875 -5.109375 C 33.523438 -5.109375 33.90625 -4.914062 34.1875 -4.53125 C 34.46875 -4.144531 34.742188 -3.640625 35.015625 -3.015625 C 35.085938 -2.878906 35.125 -2.707031 35.125 -2.5 C 35.125 -2.21875 34.914062 -1.90625 34.5 -1.5625 C 32.488281 -0.238281 30.59375 0.644531 28.8125 1.09375 C 27.039062 1.539062 24.941406 1.765625 22.515625 1.765625 Z M 22.515625 1.765625 "/></g></g></g><g fill="#000000" fill-opacity="1"><g transform="translate(574.667418, 128.282903)"><g><path d="M 28.671875 1.25 C 23.453125 1.25 19.019531 0.140625 15.375 -2.078125 C 11.726562 -4.304688 8.96875 -7.332031 7.09375 -11.15625 C 5.21875 -14.976562 4.28125 -19.21875 4.28125 -23.875 C 4.28125 -27.96875 5.234375 -31.90625 7.140625 -35.6875 C 9.046875 -39.476562 11.769531 -42.554688 15.3125 -44.921875 C 18.863281 -47.285156 22.929688 -48.46875 27.515625 -48.46875 C 33.703125 -48.46875 38.460938 -46.882812 41.796875 -43.71875 C 45.128906 -40.5625 47.039062 -36.304688 47.53125 -30.953125 C 47.53125 -28.660156 46.90625 -27.097656 45.65625 -26.265625 C 44.40625 -25.429688 42.597656 -25.015625 40.234375 -25.015625 L 14.90625 -25.015625 C 14.90625 -18.554688 16.242188 -13.429688 18.921875 -9.640625 C 21.597656 -5.847656 25.75 -3.953125 31.375 -3.953125 C 34.363281 -3.953125 36.898438 -4.59375 38.984375 -5.875 C 41.066406 -7.164062 43.046875 -9.34375 44.921875 -12.40625 C 45.273438 -12.75 45.625 -12.921875 45.96875 -12.921875 C 46.457031 -12.921875 46.875 -12.785156 47.21875 -12.515625 C 47.914062 -12.085938 48.265625 -11.457031 48.265625 -10.625 C 48.265625 -10.207031 48.191406 -9.894531 48.046875 -9.6875 C 45.898438 -6.21875 43.175781 -3.523438 39.875 -1.609375 C 36.570312 0.296875 32.835938 1.25 28.671875 1.25 Z M 31.890625 -28.984375 C 35.441406 -28.984375 37.320312 -30.441406 37.53125 -33.359375 C 37.53125 -36.554688 36.660156 -39.265625 34.921875 -41.484375 C 33.179688 -43.710938 30.710938 -44.828125 27.515625 -44.828125 C 23.972656 -44.828125 21.054688 -43.414062 18.765625 -40.59375 C 16.472656 -37.78125 15.1875 -33.910156 14.90625 -28.984375 Z M 31.890625 -28.984375 "/></g></g></g><g fill="#000000" fill-opacity="1"><g transform="translate(626.990806, 128.282903)"><g><path d="M 27 1.25 C 19.90625 1.25 14.34375 -1.003906 10.3125 -5.515625 C 6.289062 -10.035156 4.28125 -16.082031 4.28125 -23.65625 C 4.414062 -28.382812 5.578125 -32.609375 7.765625 -36.328125 C 9.953125 -40.046875 12.882812 -42.960938 16.5625 -45.078125 C 20.25 -47.203125 24.316406 -48.332031 28.765625 -48.46875 C 33.210938 -48.46875 37.050781 -47.632812 40.28125 -45.96875 C 43.519531 -44.300781 45.140625 -41.519531 45.140625 -37.625 C 45.140625 -35.46875 44.492188 -33.570312 43.203125 -31.9375 C 41.921875 -30.3125 40.203125 -29.5 38.046875 -29.5 C 36.722656 -29.5 35.59375 -29.84375 34.65625 -30.53125 C 33.71875 -31.226562 33.25 -31.820312 33.25 -32.3125 C 33.25 -32.382812 33.5625 -32.695312 34.1875 -33.25 C 34.8125 -33.800781 35.382812 -34.476562 35.90625 -35.28125 C 36.425781 -36.082031 36.6875 -37.003906 36.6875 -38.046875 C 36.6875 -40.203125 35.90625 -41.832031 34.34375 -42.9375 C 32.78125 -44.050781 30.890625 -44.609375 28.671875 -44.609375 C 23.316406 -44.609375 19.679688 -42.644531 17.765625 -38.71875 C 15.859375 -34.789062 14.90625 -29.875 14.90625 -23.96875 C 14.90625 -18.132812 16.222656 -13.335938 18.859375 -9.578125 C 21.503906 -5.828125 25.015625 -3.953125 29.390625 -3.953125 C 32.378906 -3.953125 34.929688 -4.59375 37.046875 -5.875 C 39.171875 -7.164062 41.101562 -9.132812 42.84375 -11.78125 C 43.050781 -12.125 43.394531 -12.296875 43.875 -12.296875 C 44.226562 -12.296875 44.613281 -12.191406 45.03125 -11.984375 C 45.375 -11.847656 45.648438 -11.601562 45.859375 -11.25 C 46.066406 -10.90625 46.171875 -10.5625 46.171875 -10.21875 C 46.171875 -10.007812 46.066406 -9.726562 45.859375 -9.375 C 43.566406 -6.113281 40.71875 -3.523438 37.3125 -1.609375 C 33.90625 0.296875 30.46875 1.25 27 1.25 Z M 27 1.25 "/></g></g></g><g fill="#000000" fill-opacity="1"><g transform="translate(676.499998, 128.282903)"><g><path d="M 4.0625 0.3125 C 3.507812 0.3125 3.09375 0.101562 2.8125 -0.3125 C 2.53125 -0.726562 2.390625 -1.210938 2.390625 -1.765625 C 2.460938 -2.671875 2.65625 -3.207031 2.96875 -3.375 C 3.28125 -3.550781 3.890625 -3.640625 4.796875 -3.640625 C 6.597656 -3.640625 7.878906 -3.953125 8.640625 -4.578125 C 9.410156 -5.210938 9.863281 -5.945312 10 -6.78125 C 10.144531 -7.613281 10.21875 -8.929688 10.21875 -10.734375 L 10.21875 -61.609375 C 10.21875 -63.410156 10.164062 -64.726562 10.0625 -65.5625 C 9.957031 -66.394531 9.519531 -67.125 8.75 -67.75 C 7.988281 -68.375 6.707031 -68.6875 4.90625 -68.6875 C 4.0625 -68.6875 3.429688 -68.804688 3.015625 -69.046875 C 2.597656 -69.296875 2.390625 -69.875 2.390625 -70.78125 C 2.390625 -71.195312 2.53125 -71.59375 2.8125 -71.96875 C 3.09375 -72.351562 3.507812 -72.582031 4.0625 -72.65625 C 7.539062 -73.132812 10.164062 -73.671875 11.9375 -74.265625 C 13.707031 -74.859375 14.734375 -75.1875 15.015625 -75.25 C 16.328125 -75.738281 17.226562 -75.984375 17.71875 -75.984375 C 19.039062 -75.984375 19.703125 -75.320312 19.703125 -74 L 19.703125 -40.4375 L 19.90625 -40.4375 C 21.925781 -42.3125 23.5625 -43.753906 24.8125 -44.765625 C 26.0625 -45.773438 27.675781 -46.644531 29.65625 -47.375 C 31.632812 -48.101562 33.976562 -48.46875 36.6875 -48.46875 C 41.414062 -48.46875 45.171875 -47.039062 47.953125 -44.1875 C 50.734375 -41.34375 52.125 -37.59375 52.125 -32.9375 L 52.125 -10.734375 C 52.125 -8.929688 52.175781 -7.613281 52.28125 -6.78125 C 52.382812 -5.945312 52.816406 -5.210938 53.578125 -4.578125 C 54.335938 -3.953125 55.625 -3.640625 57.4375 -3.640625 L 58.0625 -3.640625 C 58.6875 -3.640625 59.117188 -3.535156 59.359375 -3.328125 C 59.597656 -3.117188 59.753906 -2.597656 59.828125 -1.765625 C 59.828125 -1.210938 59.6875 -0.726562 59.40625 -0.3125 C 59.132812 0.101562 58.753906 0.3125 58.265625 0.3125 C 54.171875 0.101562 50.523438 0 47.328125 0 C 44.054688 0 40.441406 0.101562 36.484375 0.3125 C 35.921875 0.3125 35.5 0.101562 35.21875 -0.3125 C 34.945312 -0.726562 34.8125 -1.210938 34.8125 -1.765625 C 34.882812 -2.671875 35.078125 -3.207031 35.390625 -3.375 C 35.703125 -3.550781 36.3125 -3.640625 37.21875 -3.640625 C 39.019531 -3.640625 40.300781 -3.953125 41.0625 -4.578125 C 41.832031 -5.210938 42.269531 -5.925781 42.375 -6.71875 C 42.476562 -7.519531 42.53125 -8.859375 42.53125 -10.734375 L 42.53125 -32.828125 C 42.53125 -36.023438 41.539062 -38.472656 39.5625 -40.171875 C 37.582031 -41.878906 35.269531 -42.734375 32.625 -42.734375 C 29.425781 -42.734375 26.660156 -41.929688 24.328125 -40.328125 C 22.003906 -38.734375 20.460938 -37.140625 19.703125 -35.546875 L 19.703125 -10.734375 C 19.703125 -8.929688 19.753906 -7.613281 19.859375 -6.78125 C 19.960938 -5.945312 20.394531 -5.210938 21.15625 -4.578125 C 21.925781 -3.953125 23.210938 -3.640625 25.015625 -3.640625 L 25.640625 -3.640625 C 26.265625 -3.640625 26.695312 -3.535156 26.9375 -3.328125 C 27.1875 -3.117188 27.34375 -2.597656 27.40625 -1.765625 C 27.40625 -1.210938 27.265625 -0.726562 26.984375 -0.3125 C 26.710938 0.101562 26.332031 0.3125 25.84375 0.3125 C 21.8125 0.101562 18.164062 0 14.90625 0 C 11.78125 0 8.164062 0.101562 4.0625 0.3125 Z M 4.0625 0.3125 "/></g></g></g></svg>