<svg xmlns="http://www.w3.org/2000/svg" xmlns:xlink="http://www.w3.org/1999/xlink" width="500" zoomAndPan="magnify" viewBox="0 0 375 374.999991" height="500" preserveAspectRatio="xMidYMid meet" version="1.0"><defs><clipPath id="7da885307f"><path d="M 62 78.066406 L 266 78.066406 L 266 266 L 62 266 Z M 62 78.066406 " clip-rule="nonzero"/></clipPath></defs><rect x="-37.5" width="450" fill="#ffffff" y="-37.499999" height="449.999989" fill-opacity="1"/><rect x="-37.5" width="450" fill="#000000" y="-37.499999" height="449.999989" fill-opacity="1"/><path fill="#ffffff" d="M 101.5625 265.621094 L 70.3125 265.621094 C 66 265.621094 62.5 262.121094 62.5 257.808594 C 62.5 253.496094 66 249.996094 70.3125 249.996094 L 101.5625 249.996094 C 105.875 249.996094 109.375 253.496094 109.375 257.808594 C 109.375 262.121094 105.875 265.621094 101.5625 265.621094 Z M 101.5625 265.621094 " fill-opacity="1" fill-rule="nonzero"/><path fill="#ffffff" d="M 355.46875 265.621094 L 335.9375 265.621094 C 331.625 265.621094 328.125 262.121094 328.125 257.808594 C 328.125 253.496094 331.625 249.996094 335.9375 249.996094 L 348.984375 249.996094 L 359.515625 193.871094 C 359.375 165.152344 334.84375 140.621094 304.6875 140.621094 L 253.390625 140.621094 L 228.53125 249.996094 L 273.4375 249.996094 C 277.75 249.996094 281.25 253.496094 281.25 257.808594 C 281.25 262.121094 277.75 265.621094 273.4375 265.621094 L 218.75 265.621094 C 216.375 265.621094 214.125 264.542969 212.640625 262.683594 C 211.15625 260.839844 210.59375 258.402344 211.125 256.089844 L 239.53125 131.089844 C 240.34375 127.511719 243.5 124.996094 247.15625 124.996094 L 304.6875 124.996094 C 343.453125 124.996094 375 156.542969 375 195.308594 L 363.140625 259.246094 C 362.453125 262.949219 359.234375 265.621094 355.46875 265.621094 Z M 355.46875 265.621094 " fill-opacity="1" fill-rule="nonzero"/><path fill="#ffffff" d="M 304.6875 296.871094 C 283.15625 296.871094 265.625 279.355469 265.625 257.808594 C 265.625 236.261719 283.15625 218.746094 304.6875 218.746094 C 326.21875 218.746094 343.75 236.261719 343.75 257.808594 C 343.75 279.355469 326.21875 296.871094 304.6875 296.871094 Z M 304.6875 234.371094 C 291.765625 234.371094 281.25 244.886719 281.25 257.808594 C 281.25 270.730469 291.765625 281.246094 304.6875 281.246094 C 317.609375 281.246094 328.125 270.730469 328.125 257.808594 C 328.125 244.886719 317.609375 234.371094 304.6875 234.371094 Z M 304.6875 234.371094 " fill-opacity="1" fill-rule="nonzero"/><path fill="#ffffff" d="M 132.8125 296.871094 C 111.28125 296.871094 93.75 279.355469 93.75 257.808594 C 93.75 236.261719 111.28125 218.746094 132.8125 218.746094 C 154.34375 218.746094 171.875 236.261719 171.875 257.808594 C 171.875 279.355469 154.34375 296.871094 132.8125 296.871094 Z M 132.8125 234.371094 C 119.890625 234.371094 109.375 244.886719 109.375 257.808594 C 109.375 270.730469 119.890625 281.246094 132.8125 281.246094 C 145.734375 281.246094 156.25 270.730469 156.25 257.808594 C 156.25 244.886719 145.734375 234.371094 132.8125 234.371094 Z M 132.8125 234.371094 " fill-opacity="1" fill-rule="nonzero"/><path fill="#ffffff" d="M 101.5625 124.996094 L 39.0625 124.996094 C 34.75 124.996094 31.25 121.496094 31.25 117.183594 C 31.25 112.871094 34.75 109.371094 39.0625 109.371094 L 101.5625 109.371094 C 105.875 109.371094 109.375 112.871094 109.375 117.183594 C 109.375 121.496094 105.875 124.996094 101.5625 124.996094 Z M 101.5625 124.996094 " fill-opacity="1" fill-rule="nonzero"/><path fill="#ffffff" d="M 101.5625 171.871094 L 23.4375 171.871094 C 19.125 171.871094 15.625 168.371094 15.625 164.058594 C 15.625 159.746094 19.125 156.246094 23.4375 156.246094 L 101.5625 156.246094 C 105.875 156.246094 109.375 159.746094 109.375 164.058594 C 109.375 168.371094 105.875 171.871094 101.5625 171.871094 Z M 101.5625 171.871094 " fill-opacity="1" fill-rule="nonzero"/><path fill="#ffffff" d="M 101.5625 218.746094 L 7.8125 218.746094 C 3.5 218.746094 0 215.246094 0 210.933594 C 0 206.621094 3.5 203.121094 7.8125 203.121094 L 101.5625 203.121094 C 105.875 203.121094 109.375 206.621094 109.375 210.933594 C 109.375 215.246094 105.875 218.746094 101.5625 218.746094 Z M 101.5625 218.746094 " fill-opacity="1" fill-rule="nonzero"/><g clip-path="url(#7da885307f)"><path fill="#ffffff" d="M 218.75 265.621094 L 164.0625 265.621094 C 159.75 265.621094 156.25 262.121094 156.25 257.808594 C 156.25 253.496094 159.75 249.996094 164.0625 249.996094 L 212.515625 249.996094 L 248.015625 93.746094 L 70.3125 93.746094 C 66 93.746094 62.5 90.246094 62.5 85.933594 C 62.5 81.621094 66 78.121094 70.3125 78.121094 L 257.8125 78.121094 C 260.1875 78.121094 262.4375 79.199219 263.921875 81.058594 C 265.40625 82.902344 265.96875 85.339844 265.4375 87.652344 L 226.375 259.527344 C 225.5625 263.105469 222.390625 265.621094 218.75 265.621094 Z M 218.75 265.621094 " fill-opacity="1" fill-rule="nonzero"/></g></svg>